<svg xmlns="http://www.w3.org/2000/svg" width="64" height="64" enable-background="new 0 0 64 64" viewBox="0 0 64 64" id="jeans"><polygon fill="#844747" points="45 1 45 4 39 4 32 4 32 1"></polygon><polygon fill="#844747" points="32 1 32 4 25 4 19 4 19 1"></polygon><path fill="#773E3E" d="M45 4v8h-1c-2.76 0-5-2.24-5-5V4H45zM25 4v3c0 2.76-2.24 5-5 5h-1V4H25z"></path><polygon fill="#965353" points="32 60 32 63 23 63 22.74 60"></polygon><polygon fill="#965353" points="41.26 60 41 63 32 63 32 60"></polygon><path fill="#844747" d="M45,12v5l-3.74,43H32h-9.26L19,17v-5h1c2.76,0,5-2.24,5-5V4h7h7v3c0,2.76,2.24,5,5,5H45z"></path><g><path d="M40.998,64H23.002c-0.519,0-0.951-0.396-0.996-0.913l-4.004-46.001L17.998,1c0-0.553,0.447-1,1-1h26.004
			c0.553,0,1,0.447,1,1v15.999l-4.008,46.088C41.949,63.604,41.517,64,40.998,64z M23.919,62h16.162l3.925-45.088L44.002,2H19.998
			v14.999L23.919,62z"></path><path d="M45.002,5H18.998c-0.553,0-1-0.447-1-1s0.447-1,1-1h26.004c0.553,0,1,0.447,1,1S45.555,5,45.002,5z"></path><path d="M32 12.999c-.553 0-1-.447-1-1V1c0-.553.447-1 1-1s1 .447 1 1v10.999C33 12.552 32.553 12.999 32 12.999zM34.028 4c-.553 0-1.005-.447-1.005-1s.442-1 .994-1h.011c.552 0 1 .447 1 1S34.58 4 34.028 4zM32.002 64c-.553 0-1-.447-1-1V21.999c0-.553.447-1 1-1s1 .447 1 1V63C33.002 63.553 32.555 64 32.002 64zM44 13c-3.309 0-6-2.691-6-6 0-.553.447-1 1-1s1 .447 1 1c0 2.206 1.794 4 4 4 .553 0 1 .447 1 1S44.553 13 44 13z"></path><path d="M39 8c-.553 0-1-.447-1-1V4c0-.553.447-1 1-1s1 .447 1 1v3C40 7.553 39.553 8 39 8zM45 13h-1c-.553 0-1-.447-1-1s.447-1 1-1h1c.553 0 1 .447 1 1S45.553 13 45 13zM20 13c-.553 0-1-.447-1-1s.447-1 1-1c2.206 0 4-1.794 4-4 0-.553.447-1 1-1s1 .447 1 1C26 10.309 23.309 13 20 13z"></path><path d="M25 8c-.553 0-1-.447-1-1V4c0-.553.447-1 1-1s1 .447 1 1v3C26 7.553 25.553 8 25 8zM20 13h-.998c-.553 0-1-.447-1-1s.447-1 1-1H20c.553 0 1 .447 1 1S20.553 13 20 13zM41.259 61H22.741c-.553 0-1-.447-1-1s.447-1 1-1h18.518c.553 0 1 .447 1 1S41.812 61 41.259 61z"></path></g></svg>